<?xml version="1.0" encoding="utf-8"?><svg viewBox="0 0 90 51" xmlns="http://www.w3.org/2000/svg" xmlns:xlink="http://www.w3.org/1999/xlink"><style>:root>svg{display:none}:root>svg:target{display:block}</style><svg fill="none" viewBox="0 0 90 51" id="logo" xmlns="http://www.w3.org/2000/svg"><path d="M89.715 35.473c-.25-1.123-.762-2.14-1.354-3.12a7.463 7.463 0 0 0-2.3-2.386c-.99-.662-1.98-1.03-3.149-1.214-2.253-.353-4.69.204-6.495 1.625-.727.57-1.45 1.494-1.653 2.418-.037.162-.128.672.188.589.373-.1.733-.634 1.025-.88a5.975 5.975 0 0 1 2.76-1.305c1.092-.202 2.25-.301 3.354-.144 1.014.144 1.948.72 2.668 1.436.759.754 1.481 1.835 1.76 2.881.564 2.112.444 4.485-.206 6.573-.172.552-.393 1.157-.74 1.622-.12.16-.25.388-.444.463-.224.092-.378-.13-.503-.277-.41-.474-.814-.952-1.263-1.395-.302-.298-.944-.672-.787-1.172.182-.583.394-1.122.461-1.737.06-.555.084-1.102.034-1.66-.099-1.116-.508-2.077-1.35-2.838-.783-.707-1.795-1.031-2.805-.639-1.025.4-1.601 1.249-1.275 2.363.266.913 1.239 1.298 2.115 1.117.535-.11.903-.42 1.117-.92.104-.241.177-.492.19-.757.01-.151-.11-.544-.026-.696 0 .034.12-.002.068-.02.354.07.641.661.803.934.24.41.4.9.44 1.373.084.947.066 1.931-.393 2.784-.24.448-.62.183-.94-.042-.377-.264-.75-.526-1.16-.74-.954-.497-1.896-.958-2.916-1.309a23.834 23.834 0 0 0-1.625-.507c-.563-.152-.467-.565-.527-1.06-.14-1.151-.563-2.255-1.145-3.25a31.307 31.307 0 0 0-1.966-3.006c-.741-.989-1.534-1.939-2.249-2.946-.146-.207-.9-1.146-.662-1.403.172-.188.756.113.946.162 1.052.27 2.134.38 3.214.432a19.778 19.778 0 0 0 7.207-1.02c4.05-1.369 8.289-4.307 8.623-8.957.162-2.218-.287-4.5-1.583-6.334-1.294-1.832-3.258-3.012-5.37-3.65-1.128-.343-2.294-.55-3.462-.696-1.2-.152-2.475-.254-3.683-.202-1.187.055-2.405.094-3.56.377-.574.139-1.14.204-1.706.382-.54.167-1.109.288-1.636.497-1.132.453-2.23.918-3.3 1.51a36.107 36.107 0 0 0-2.991 1.84 32.424 32.424 0 0 0-2.838 2.192c-.157.133-.77.86-.965.487-.146-.278-.084-.678-.094-.982a9.596 9.596 0 0 1 2.162-6.447c.705-.86 1.513-1.737 2.457-2.336.522-.327 1.025-.68 1.573-.963.49-.254 1.012-.445 1.52-.662C67.38.973 69.762.714 72.018.822c.556.026 1.16.185 1.675.395.422.172.793.649 1.273.405.837-.424 1.731-.238 2.605-.497.146-.042.389-.178.243-.366-.118-.152-.386-.183-.558-.223C76.74.416 76.225.327 75.7.25 74.448.065 73.2.02 71.934.003c-2.369-.037-4.714.308-6.92 1.203-2.17.88-4.2 2.049-5.728 3.873-.736.882-1.289 1.868-1.709 2.933-.412 1.044-.558 2.19-.678 3.294a9.767 9.767 0 0 0-.041 1.724c.026.403.193.948-.042 1.314-.318.497-.801.916-1.198 1.35-.344.377-.602.827-.912 1.235a18.815 18.815 0 0 0-1.938 3.096c-.54 1.101-.932 2.226-1.32 3.388-.785 2.34-.937 4.796-.837 7.245.05 1.196.26 2.381.555 3.538.284 1.114.634 2.247 1.109 3.297-1.876-.11-3.782-.22-4.382.193.039-.026 3.64 4.752 1.964 7.947-1.857-1.678-7.283-6.453-4.787-8.3 1.93-1.426 4.349-4.137 3.295-6.78-1.08-2.716-4.85-2.035-6.495-.345-3.216 3.279.976 6.774-1.847 9.197a7.74 7.74 0 0 0-.907.924c.127-.413.214-.84.247-1.287a11.96 11.96 0 0 0-.245-3.58c-.25-1.122-.762-2.14-1.35-3.119a7.47 7.47 0 0 0-2.304-2.386c-.989-.662-1.98-1.031-3.148-1.214-2.254-.353-4.69.204-6.493 1.625-.727.57-1.452 1.494-1.656 2.417-.036.163-.128.673.19.59.376-.1.733-.634 1.026-.88a5.974 5.974 0 0 1 2.76-1.306c1.092-.201 2.253-.3 3.356-.144 1.012.144 1.946.72 2.668 1.437.76.754 1.482 1.834 1.761 2.88.564 2.112.441 4.485-.206 6.573-.172.553-.394 1.157-.743 1.623-.12.16-.25.387-.444.463-.224.091-.375-.13-.503-.278-.412-.473-.814-.952-1.26-1.394-.303-.298-.944-.672-.79-1.172.182-.584.394-1.123.461-1.738a8.198 8.198 0 0 0 .034-1.659c-.099-1.117-.508-2.077-1.353-2.839-.78-.706-1.795-1.03-2.802-.638-1.027.4-1.601 1.248-1.278 2.363.269.913 1.24 1.298 2.118 1.117.535-.11.903-.421 1.117-.921.104-.24.174-.492.19-.756.008-.152-.11-.544-.029-.696 0 .034.123-.003.068-.021.355.07.644.662.803.934.243.41.4.898.444 1.374.08.947.062 1.93-.397 2.784-.24.447-.62.183-.936-.042-.378-.264-.751-.526-1.163-.74-.955-.498-1.897-.958-2.916-1.309a23.847 23.847 0 0 0-1.628-.508c-.564-.149-.464-.565-.524-1.06-.144-1.15-.564-2.255-1.145-3.252a30.843 30.843 0 0 0-1.97-3.006c-.738-.99-1.53-1.939-2.248-2.946-.144-.207-.897-1.146-.66-1.403.172-.188.756.113.947.163 1.051.269 2.13.379 3.21.431a19.778 19.778 0 0 0 7.207-1.02c4.054-1.369 8.29-4.307 8.626-8.957.16-2.219-.29-4.5-1.586-6.334-1.29-1.832-3.257-3.012-5.37-3.65-1.13-.343-2.293-.55-3.461-.696-1.2-.152-2.476-.254-3.683-.202-1.187.055-2.405.094-3.56.377-.575.138-1.14.204-1.707.382-.542.167-1.108.288-1.635.497-1.132.453-2.23.918-3.3 1.51a36.112 36.112 0 0 0-2.991 1.84 32.455 32.455 0 0 0-2.838 2.192c-.157.133-.767.86-.965.487-.146-.278-.081-.678-.094-.982A9.61 9.61 0 0 1 9.13 5.806c.704-.86 1.513-1.737 2.46-2.336.519-.328 1.025-.68 1.573-.963.493-.254 1.012-.445 1.523-.662C16.788.973 19.17.715 21.428.822c.553.026 1.159.185 1.672.395.423.172.793.649 1.273.405.84-.424 1.732-.238 2.606-.497.146-.042.389-.178.242-.366-.117-.152-.386-.183-.555-.223-.517-.12-1.033-.209-1.555-.287C23.86.065 22.61.02 21.348.003c-2.371-.037-4.716.308-6.92 1.203-2.173.88-4.2 2.049-5.728 3.873-.738.882-1.289 1.868-1.711 2.933-.412 1.044-.559 2.19-.676 3.294a10.02 10.02 0 0 0-.042 1.724c.026.403.196.948-.041 1.314-.316.497-.804.916-1.198 1.35-.344.377-.6.827-.91 1.235a18.826 18.826 0 0 0-1.94 3.096c-.54 1.101-.93 2.226-1.318 3.388-.785 2.34-.936 4.796-.837 7.245.05 1.196.26 2.381.558 3.538.29 1.135.647 2.294 1.137 3.36.501 1.09.981 2.166 1.589 3.205.219.371.715.876.334 1.29-.36.392-.749.737-1.075 1.164-.644.842-1.254 1.81-1.351 2.891-.094 1.055.1 2.135.824 2.939C3.65 50.82 6.19 51.1 8.455 50.973c1.129-.063 2.282-.196 3.367-.526.558-.17 1.132-.343 1.67-.565.463-.194.983-.565 1.494-.364 2.133.85 4.58 1.157 6.86 1.17 2.308.013 4.74-.348 6.93-1.089 1.148-.384 2.259-.87 3.284-1.525a17.82 17.82 0 0 0 1.685-1.243l1.735-.04c-.165-.525.19-1.582.51-1.912.637-.649 1.279-1.34 1.83-2.083-1.318 4.718 3.114 9.878 8.73 7.172 1-.489 2.248-1.31 3.028-2.103.706.583 3.182 1.771 4.684 2.386l.003.003c.2.094.404.18.615.253 1.307.469 2.786.545 4.163.466 1.13-.063 2.283-.196 3.368-.526.558-.17 1.13-.343 1.669-.565.464-.194.983-.565 1.497-.364 2.131.85 4.58 1.157 6.858 1.17 2.308.013 4.742-.348 6.933-1.089 1.147-.384 2.258-.87 3.28-1.525a18.21 18.21 0 0 0 1.688-1.243l1.732-.04c-.161-.525.188-1.582.514-1.912 1.583-1.617 3.2-3.464 3.38-5.835a12.015 12.015 0 0 0-.247-3.571ZM22.31 43.346c.258-.312.47-.673.665-1.026.42-.753.77-1.583.968-2.425l.002-.016v-.003l.006-.026a.827.827 0 0 1 .008-.037v-.002l.007-.026v-.003c.094-.405.209-.662.691-.479.418.157.859.251 1.292.359.881.222 1.805.588 2.61 1.005.452.23.88.502 1.302.787.28.188.6.43.31.767-.578.662-1.314 1.083-2.094 1.47-.853.421-1.815.555-2.757.584-.5.013-1.004-.037-1.505-.055-.472-.019-.947-.034-1.409-.147-.485-.125-.354-.416-.096-.727Zm-1.403-2.852a6.501 6.501 0 0 1-.572 2.436c-.198.437-.414.497-.852.288-.394-.186-.799-.343-1.187-.542-1.716-.877-3.318-1.902-4.672-3.289-.579-.594.37-.605.785-.68.955-.18 1.912-.163 2.877-.2l.034-.002c.013 0 .029 0 .045-.002l.054-.003c.01-.003.021-.003.032-.003h.008l.033-.002.026-.003c.494-.02.981-.06 1.477-.052.485.005 1.035-.026 1.51.086.584.15.42 1.52.402 1.968Zm-2.173-6.725c.629.976 1.317 1.976 1.664 3.096.201.656-.631.423-1.033.42a25.588 25.588 0 0 0-1.792.056c-1.153.073-2.313.167-3.456.35-.302.05-.602.105-.9.168-.219.047-.44.178-.667.094-.321-.118-.561-.764-.705-1.044-.519-1.015-.876-2.106-1.155-3.205-.157-.612-.211-1.267-.303-1.895-.086-.599-.075-1.208-.026-1.813.17-2.166.451-4.498 1.76-6.303l.016-.021a.316.316 0 0 1 .032-.042v-.002c.38-.498.819-.037 1.226.232.456.304.913.634 1.403.88.209.104.436.222.457.484.02.256-.037.52-.037.777.005.557.08 1.127.222 1.666.284 1.094.879 2.086 1.419 3.067.576 1.05 1.23 2.036 1.875 3.035Zm-9.41-3.11c.116 2.393.938 4.591 1.872 6.77.193.45.443.828-.162 1.003-.32.094-.936.481-1.231.21-.32-.294-.5-.838-.668-1.225-.211-.492-.407-.992-.519-1.515-.485-2.269-.667-4.668-.237-6.958.389-2.07 1.351-4.26 2.773-5.832.005-.005.015-.013.026-.026l.03-.034c.126-.128.486-.463.56-.173.054.225-.184.516-.296.686-.474.72-.847 1.426-1.173 2.226-.619 1.513-1.057 3.219-.976 4.867ZM7.53 14.482c.352-.385.785-.72 1.169-1.073.842-.775 1.77-1.492 2.705-2.154.495-.35 1.012-.667 1.515-1.007.477-.322.989-.55 1.492-.824 2.113-1.16 4.418-1.989 6.797-2.373 1.169-.189 2.311-.304 3.5-.288 1.08.013 2.116.157 3.178.324 2.232.35 4.525 1.356 6.158 2.946a8.423 8.423 0 0 1 1.907 2.766c.433 1.039.568 2.237.55 3.357a8.693 8.693 0 0 1-2.235 5.702c-1.545 1.713-3.827 2.828-6.036 3.38a20.887 20.887 0 0 1-7.173.505c-.592-.06-1.155-.17-1.74-.282-.401-.076-.92-.212-1.278-.414-.428-.24-.18-.944-.096-1.316.117-.508.323-.94.597-1.376.292-.469.699-.885.955-1.371.224-.43-.084-.62-.501-.476-.98.342-1.92 1.083-2.559 1.891-.347.44-.519.948-.785 1.429-.245.45-.717.097-1.049-.068-.461-.23-.965-.474-1.39-.775-.383-.274-.055-.594.204-.816a11.557 11.557 0 0 1 5.798-2.716c.25-.04.558-.126.79.029.188.125.308.33.467.486.35.351.757.665 1.182.919.947.56 2.115.759 3.198.777 1.226.021 2.384-.275 3.505-.761 1.04-.45 2.063-1.04 2.812-1.908.14-.162.756-.968.206-1.012-.32-.027-.686.22-.986.31-1.017.305-2.17.213-3.143-.195-.89-.375-1.935-.987-2.288-1.947-.365-1.013.319-1.476.976-2.072 0 0 .003-.003.005-.003v-.003h.003l.013-.015c.318-.288-.055-.317-.308-.23a3.426 3.426 0 0 0-.689.316c-.461.283-.816.675-1.233 1.01-.916.73-2.108 1.167-3.177 1.607a61.207 61.207 0 0 0-3.438 1.54c-1.07.514-2.152 1.01-3.167 1.623-.524.317-1.046.628-1.544.99-.333.24-.824.776-1.228.407-.804-.73-1.516-1.695-2.108-2.6-.315-.482-.667-1-.879-1.54-.198-.502.253-.792.595-1.072a11.005 11.005 0 0 1 2.572-1.588c.477-.21.954-.398 1.466-.508.161-.036.71-.23.824-.044.083.138-.084.405-.123.536-.075.251-.096.52-.054.777.07.424.29.856.636 1.112.78.576 2.003.463 2.525-.4.521-.86.368-1.915-.441-2.538-.85-.657-2.126-.455-3.101-.251-.285.06-.598.06-.864.178-.242.104-.474.227-.72.322-.542.211-1.035.515-1.538.8-.499.285-.947.594-1.399.947-.253.197-.717.76-.96.283-.182-.359-.372-.924-.07-1.253ZM1.446 29.698c0 .008-.003.016-.003.02l-.002.024v.003c0 .005 0 .01-.003.016v.013c0 .005-.003.01-.003.013v.008l-.002.013v.002c-.024.333-.042.68-.18.987-.214-.293-.133-.838-.144-1.178-.013-.46-.083-.9-.067-1.368.026-.903.174-1.782.281-2.68.28-2.289 1.244-4.513 2.366-6.499a17.453 17.453 0 0 1 2.105-2.949c.13-.149.647-.952.856-.555.083.163.101.351.161.521.076.207.19.424.092.644-.128.275-.39.515-.57.753-.176.233-.354.469-.529.707a18.17 18.17 0 0 0-.975 1.418c-.62 1.039-1.119 2.122-1.61 3.224-.477 1.075-.821 2.203-1.082 3.349-.26 1.162-.6 2.331-.691 3.514Zm2.227 9.849c-.27-.5-.519-1.016-.701-1.555-.76-2.218-.94-4.647-.83-6.975.058-1.199.19-2.431.462-3.6.26-1.118.587-2.259 1.017-3.319.467-1.148.845-2.31 1.49-3.38.581-.958 1.113-1.942 1.878-2.768.018-.021.036-.037.054-.055.013-.014.013-.016.013-.016.34-.353.525-.128.715.246.24.474.564.895.874 1.324.32.442.678.855 1.04 1.264.314.353.744.677.994 1.078.225.355-.36.785-.584.986-.417.38-.743.824-1.098 1.256-.683.837-1.312 1.714-1.823 2.669-2.04 3.841-3.268 8.187-2.087 12.497.078.287.151.58.261.86.07.178.185.424.086.613-.143.277-.592.547-.858.285-.38-.372-.652-.95-.903-1.41Zm9.174 9.542c-.446.272-.96.416-1.45.589-1.145.403-2.376.531-3.584.565-1.787.052-4.27-.317-5.365-1.92-1.344-1.968.086-4.394 1.742-5.637.47-.353.868.39 1.145.691.383.416.79.806 1.21 1.185.827.746 1.651 1.534 2.575 2.164.007.006.015.01.026.016l.094.063c.002.002.002.002.005.002l.013.008c.232.168.451.382.756.38.042-.296-.422-.589-.618-.736-.287-.217-.587-.416-.853-.656a20.28 20.28 0 0 1-1.737-1.777c-.482-.55-1.064-1.185-1.385-1.847-.128-.264.057-.495.308-.584.24-.086.404.194.5.361.739 1.275 1.706 2.473 2.729 3.527a17.903 17.903 0 0 0 3.537 2.858c.29.175.855.442.352.748Zm4.382-2.834c-.449-.076-.936-.424-1.32-.656a10.642 10.642 0 0 1-2.45-1.978 30.95 30.95 0 0 1-2.034-2.518c-.27-.371-.639-.772-.821-1.195-.157-.367.279-.424.542-.492l.005-.003c.003-.002.003-.002.003 0l.003-.002.015-.003a.33.33 0 0 1 .026-.008c.021-.008.037-.01.05-.013.003-.003.008-.003.013-.005.003 0 .005-.003.01-.003l.008-.002c.389-.126.874-.32 1.21 0 .332.316.637.656.973.968a22.624 22.624 0 0 0 2.445 1.99 23.209 23.209 0 0 0 2.717 1.63c.23.116.903.341.692.697-.206.348-.608.67-.903.94-.305.274-.735.73-1.184.653Zm11.32 1.502c-.605.668-1.805.552-2.61.534-1.125-.026-2.262-.078-3.37-.275a20.373 20.373 0 0 1-3.235-.874c-.12-.041-.451-.123-.462-.287-.013-.183.321-.37.436-.463.38-.317.762-.634 1.13-.958l.002-.003.008-.008.002-.002s.018-.013.034-.032l.047-.042.003-.002c.404-.346.673-.406 1.226-.298.537.104 1.087.138 1.635.167 1.043.055 2.095.055 3.133-.118.112-.02.96-.293.78.066-.17.343-.457 1.172.065.905.644-.32 2 .788 1.176 1.69Zm4.505-2.66c-.329.12-.728.151-1.075.151-.913 0-1.781-.468-2.679-.617-.007 0-.015-.003-.02-.003h-.003c-.01-.003-.018-.003-.026-.003h-.003l-.002-.002h-.006c-.002 0-.007-.003-.013-.003-.177-.026-.367-.04-.519-.15.126-.235.381-.342.598-.473.234-.141.464-.293.688-.452.355-.254.645-.597.997-.843.362-.251.717.238.944.468.36.37.688.77 1.048 1.136.253.249.538.618.07.79Zm9.332-13.123.006-.023v-.003c.002-.008.002-.016.005-.026.003-.016.008-.034.01-.05v-.002l.006-.021c.002-.003.002-.006.002-.008 1.01-4.195 7.729 1.496 1.03 5.453-.777-1.615-1.429-3.506-1.059-5.32Zm5.28 16.092-.008.005-.04.026c-.005.003-.007.006-.012.008a.188.188 0 0 1-.034.021c-5.843 3.632-10.546-4.822-5.59-8.948 1.596 3.113 3.928 5.918 6.51 8.247-.276.212-.55.427-.826.641Zm25.235-4.72c.259-.312.467-.673.666-1.026.42-.753.769-1.583.965-2.425 0-.003 0-.006.002-.008.003-.003.003-.01.003-.021.005-.01.005-.024.01-.034 0-.008.003-.013.003-.021.002-.013.005-.026.01-.037 0-.002.003-.005.003-.005.091-.4.211-.654.688-.471.418.157.859.251 1.289.358.882.223 1.802.59 2.611 1.005.451.23.879.503 1.299.788.279.188.6.429.308.767-.58.661-1.312 1.083-2.092 1.47-.853.421-1.816.555-2.76.584-.5.012-1.001-.037-1.505-.056-.47-.018-.947-.033-1.406-.146-.482-.12-.352-.41-.094-.722Zm-1.403-2.852a6.552 6.552 0 0 1-.571 2.436c-.201.437-.417.497-.856.288-.394-.186-.795-.343-1.186-.542-1.714-.877-3.318-1.902-4.67-3.289-.578-.594.371-.605.783-.68.957-.18 1.912-.163 2.88-.2l.034-.002c.013 0 .028 0 .044-.002l.055-.003c.01-.003.018-.003.031-.003h.008l.034-.002.026-.003c.493-.02.98-.06 1.476-.052.485.005 1.036-.026 1.51.089.582.146.418 1.517.402 1.965Zm-2.173-6.725c.629.976 1.318 1.976 1.662 3.096.203.656-.631.423-1.033.42a25.514 25.514 0 0 0-1.79.056c-1.152.073-2.313.167-3.455.35-.303.05-.603.105-.9.168-.22.047-.438.178-.67.094-.319-.118-.559-.764-.702-1.044-.52-1.015-.877-2.106-1.156-3.205-.156-.612-.214-1.267-.302-1.895-.086-.599-.076-1.208-.029-1.813.17-2.15.446-4.461 1.732-6.264l.031-.042.003-.002.034-.047c.386-.521.83-.055 1.239.22.459.303.915.633 1.406.878.208.105.435.223.456.485.018.256-.04.52-.037.777.006.557.081 1.127.22 1.666.287 1.094.881 2.086 1.419 3.067.573 1.05 1.225 2.036 1.872 3.035Zm-9.41-3.11c.117 2.393.938 4.591 1.872 6.77.193.45.444.828-.161 1.003-.321.094-.937.481-1.232.21-.318-.294-.5-.838-.667-1.225-.209-.492-.405-.992-.52-1.515-.482-2.269-.665-4.668-.237-6.958.389-2.07 1.351-4.257 2.77-5.827l.008-.008.008-.008c.008-.007.018-.02.026-.028v-.003l.003-.003.008-.007.005-.008s.002 0 .002-.003l.003-.002c.128-.129.488-.463.558-.173.055.225-.182.515-.292.685-.477.72-.848 1.426-1.174 2.227-.623 1.518-1.064 3.224-.98 4.872ZM58.12 14.482c.352-.385.782-.72 1.169-1.073.842-.775 1.77-1.492 2.704-2.154.496-.35 1.012-.667 1.513-1.007.477-.322.991-.55 1.492-.824 2.113-1.16 4.419-1.989 6.797-2.373 1.169-.189 2.311-.304 3.5-.288 1.08.013 2.116.157 3.178.324 2.23.35 4.525 1.356 6.16 2.946A8.421 8.421 0 0 1 86.54 12.8c.436 1.039.569 2.237.55 3.357a8.693 8.693 0 0 1-2.235 5.702c-1.541 1.713-3.826 2.828-6.033 3.38-2.347.586-4.77.749-7.173.505-.592-.06-1.155-.17-1.742-.282-.4-.076-.918-.212-1.278-.414-.428-.24-.18-.944-.097-1.316.115-.508.324-.94.598-1.376.292-.469.699-.885.954-1.371.225-.43-.08-.62-.498-.476-.98.342-1.92 1.083-2.559 1.891-.347.44-.519.948-.785 1.429-.245.45-.717.097-1.048-.068-.465-.23-.968-.474-1.39-.775-.384-.274-.055-.594.203-.816a11.557 11.557 0 0 1 5.798-2.716c.25-.04.558-.126.788.029.188.125.308.33.467.486.347.351.756.665 1.181.919.945.56 2.113.759 3.198.777 1.226.021 2.384-.275 3.503-.761 1.041-.45 2.066-1.04 2.815-1.908.14-.162.753-.968.206-1.012-.318-.027-.684.22-.984.31-1.017.305-2.17.213-3.143-.195-.89-.375-1.938-.987-2.287-1.947-.368-1.013.318-1.476.975-2.072 0 0 .003 0 .006-.003v-.003l.02-.02c.008-.008.01-.008.01-.008.288-.275-.075-.301-.323-.217a3.515 3.515 0 0 0-.69.316c-.46.283-.814.675-1.232 1.01-.915.73-2.107 1.167-3.177 1.607a61.174 61.174 0 0 0-3.438 1.54c-1.069.514-2.149 1.01-3.166 1.623-.527.317-1.049.628-1.544.99-.337.24-.825.776-1.231.407-.801-.73-1.516-1.695-2.105-2.6-.316-.482-.668-1-.882-1.54-.196-.502.256-.792.597-1.072a10.952 10.952 0 0 1 2.572-1.588c.475-.21.955-.398 1.463-.508.162-.036.71-.23.825-.044.083.138-.084.405-.123.536-.078.251-.096.52-.055.777.07.424.287.856.637 1.112.78.576 2.003.463 2.525-.4.521-.86.367-1.915-.441-2.538-.848-.657-2.123-.455-3.102-.251-.281.06-.594.06-.863.178-.242.104-.472.227-.722.322-.543.211-1.036.515-1.54.8-.498.285-.946.594-1.397.947-.253.197-.718.76-.96.283-.18-.359-.368-.924-.068-1.253Zm-.54 3.47a.738.738 0 0 0 .06-.064l.005-.002c0-.003.003-.003.003-.003.341-.356.527-.128.714.246.24.474.564.895.874 1.324.321.442.678.856 1.041 1.264.313.353.74.677.994 1.078.224.356-.36.785-.587.986-.417.38-.743.825-1.098 1.256-.684.838-1.315 1.714-1.823 2.67-1.785 3.361-2.95 7.108-2.42 10.876-.536.032-1.206.013-1.92-.02-.645-2.1-.794-4.365-.692-6.545.057-1.198.188-2.43.462-3.6.26-1.117.587-2.258 1.017-3.318.464-1.149.845-2.31 1.49-3.38.581-.96 1.116-1.945 1.88-2.769Zm-1.557 22.719c-.144.277-.592.547-.858.285-.379-.372-.652-.95-.9-1.41-.078-.144-.157-.288-.224-.435.605-.034 1.163-.136 1.52-.366l.008.04.104.413c.081.287.152.58.261.86.073.178.188.427.089.613Zm-3.988-10.974c0 .008-.003.016-.003.023l-.002.027v.002c0 .005 0 .013-.003.018v.011c0 .003 0 .008-.003.01.003.003 0 .006 0 .008v.008c0 .003 0 .008-.002.01v.006c-.021.332-.045.675-.18.981-.212-.293-.136-.837-.144-1.177-.013-.46-.08-.9-.068-1.369.026-.903.172-1.782.28-2.68.279-2.289 1.244-4.513 2.365-6.499a17.588 17.588 0 0 1 2.103-2.949c.133-.149.646-.952.858-.554.083.162.101.35.161.52.074.207.19.424.09.644-.126.275-.387.515-.57.754-.18.232-.354.468-.529.706-.342.463-.678.924-.975 1.418-.621 1.04-1.12 2.122-1.61 3.224-.48 1.075-.822 2.203-1.082 3.35-.253 1.156-.595 2.325-.686 3.508Zm-.31 14.268c.555-1.604.638-3.543-.397-4.974.323.023.98.1 1.703.126.269.56.55 1.111.866 1.65.22.372.717.877.337 1.29-.36.393-.75.738-1.075 1.165-.644.842-1.255 1.81-1.351 2.891-.034.39-.032.783.026 1.162.036.254.096.502.185.743-1.547-1.11-1.529-.5-.295-4.053Zm11.71 5.123c-.445.272-.96.416-1.447.589-1.148.403-2.376.531-3.584.565a10.567 10.567 0 0 1-2.066-.139c-1.304-.225-2.592-.743-3.3-1.782-.08-.12-.153-.24-.216-.366-.952-1.894.405-4.103 1.96-5.27.471-.353.87.39 1.147.691.383.416.788.806 1.21 1.185.827.746 1.651 1.534 2.572 2.164l.02.014c.006.002.006.002.009.005l.008.005.065.044.02.016.014.008c.232.167.45.382.756.38.042-.296-.422-.59-.616-.736-.286-.217-.586-.416-.855-.657a20.664 20.664 0 0 1-1.737-1.776c-.483-.55-1.067-1.186-1.385-1.848-.128-.264.055-.494.308-.583.24-.086.404.194.5.361.739 1.274 1.706 2.473 2.726 3.527a17.917 17.917 0 0 0 3.54 2.857c.29.173.855.44.352.746Zm4.383-2.834c-.449-.076-.937-.424-1.323-.656a10.683 10.683 0 0 1-2.446-1.978 30.386 30.386 0 0 1-2.035-2.518c-.271-.371-.639-.772-.821-1.195-.16-.367.279-.424.54-.492l.005-.003c.002-.002.002-.002.002 0l.003-.002.016-.003a.318.318 0 0 1 .026-.008c.02-.008.036-.01.047-.013.002-.003.007-.003.013-.005.002 0 .005-.003.008-.003l.007-.002c.389-.126.874-.32 1.21 0 .332.316.637.656.973.968a22.85 22.85 0 0 0 2.442 1.99 23.656 23.656 0 0 0 2.718 1.63c.227.116.9.341.688.697-.203.348-.607.67-.9.94-.294.274-.722.73-1.173.653Zm11.323 1.502c-.606.668-1.805.552-2.611.534-1.125-.026-2.262-.078-3.37-.275-1.09-.196-2.189-.5-3.235-.874-.12-.041-.448-.123-.464-.287-.013-.183.32-.37.438-.463.378-.317.757-.631 1.13-.958 0 0 .002 0 .002-.003l.018-.015.03-.027c.023-.02.036-.031.04-.036.413-.354.68-.416 1.235-.304.537.105 1.09.139 1.635.168 1.043.055 2.097.055 3.133-.118.112-.021.96-.293.78.065-.173.343-.457 1.172.065.906.639-.322 1.998.785 1.174 1.687Zm4.504-2.66c-.328.12-.728.151-1.075.151-.905 0-1.765-.46-2.657-.615-.008-.003-.013-.003-.021-.003-.008-.002-.016-.002-.024-.002-.01-.003-.02-.003-.026-.003-.002-.002-.002-.002-.005-.002h-.005c-.005-.003-.008-.003-.013-.003l-.005-.002c-.175-.024-.366-.037-.512-.147.123-.236.381-.343.598-.474.234-.141.466-.293.69-.452.355-.254.645-.597.997-.843.363-.251.718.238.944.468.36.37.689.77 1.049 1.136.245.249.53.618.065.79Z" fill="#fff"/></svg><svg fill="none" viewBox="0 0 40 40" id="pin" xmlns="http://www.w3.org/2000/svg"><circle cx="20" cy="20" r="19.5" fill="#3B3937" stroke="#505050"/><g clip-path="url(#ba)"><path d="M21.268 10.827a9.262 9.262 0 0 0-4.97 17.663 7.185 7.185 0 0 1 .15-2.123c.172-.777 1.2-5.059 1.2-5.059a3.463 3.463 0 0 1-.3-1.46c0-1.375.794-2.401 1.782-2.401a1.237 1.237 0 0 1 1.242 1.396c0 .834-.535 2.095-.815 3.278a1.43 1.43 0 0 0 1.459 1.78c1.757 0 2.935-2.25 2.935-4.908 0-2.037-1.35-3.563-3.836-3.563a4.392 4.392 0 0 0-4.565 4.44 2.74 2.74 0 0 0 .6 1.823.445.445 0 0 1 .15.513c-.043.17-.15.577-.193.726a.329.329 0 0 1-.472.235c-1.281-.513-1.885-1.923-1.885-3.533 0-2.636 2.207-5.792 6.624-5.792 3.515 0 5.852 2.572 5.852 5.322 0 3.62-2.016 6.34-4.995 6.34a2.65 2.65 0 0 1-2.272-1.153s-.535 2.144-.64 2.55a7.432 7.432 0 0 1-.944 1.973 8.95 8.95 0 0 0 2.635.385 9.25 9.25 0 0 0 9.256-9.262 9.26 9.26 0 0 0-7.996-9.17h-.002Z" fill="#fff"/></g><defs><clipPath id="ba"><path fill="#fff" transform="translate(8.889 8.889)" d="M0 0h22.222v22.222H0z"/></clipPath></defs></svg><svg fill="none" viewBox="0 0 40 40" id="tel" xmlns="http://www.w3.org/2000/svg"><circle cx="20" cy="20" r="19.5" fill="#3B3937" stroke="#505050"/><path fill-rule="evenodd" clip-rule="evenodd" d="M10.233 19.21c5.25-2.509 8.75-4.163 10.501-4.962 5.001-2.282 6.04-2.678 6.717-2.691.15-.003.482.037.698.23.182.162.232.38.256.534.024.154.054.504.03.778-.27 3.123-1.443 10.703-2.04 14.201-.252 1.48-.749 1.977-1.23 2.026-1.046.105-1.84-.759-2.853-1.487-1.585-1.14-2.48-1.849-4.018-2.96-1.778-1.286-.626-1.992.387-3.147.266-.302 4.873-4.9 4.962-5.316.011-.052.022-.247-.084-.35-.105-.102-.26-.067-.372-.039-.16.04-2.691 1.875-7.596 5.507-.718.542-1.37.805-1.953.791-.643-.015-1.88-.398-2.799-.726-1.127-.402-2.024-.615-1.946-1.298.041-.355.488-.72 1.34-1.091Z" fill="#FFD6A8"/></svg><svg fill="none" viewBox="0 0 40 40" id="vk" xmlns="http://www.w3.org/2000/svg"><circle cx="20" cy="20" r="19.5" fill="#3B3937" stroke="#505050"/><g clip-path="url(#da)"><path d="M28.586 15.671c.126-.395 0-.671-.591-.671h-1.97c-.506 0-.731.25-.858.526 0 0-.999 2.29-2.42 3.764-.464.434-.661.565-.914.565-.127 0-.31-.131-.31-.526V15.67c0-.474-.14-.671-.563-.671h-3.095c-.31 0-.506.224-.506.421 0 .447.703.553.788 1.79v2.71c0 .592-.113.697-.366.697-.661 0-2.293-2.29-3.25-4.92-.197-.488-.38-.698-.886-.698h-1.97c-.563 0-.675.25-.675.526 0 .487.661 2.908 3.11 6.106C15.74 23.816 18.033 25 20.115 25c1.253 0 1.407-.263 1.407-.71v-1.658c0-.527.113-.632.52-.632.296 0 .789.132 1.956 1.184C25.336 24.434 25.561 25 26.307 25h1.97c.562 0 .843-.263.674-.776-.183-.514-.816-1.264-1.66-2.158-.464-.513-1.153-1.053-1.35-1.33-.296-.354-.211-.512 0-.815 0-.013 2.405-3.171 2.645-4.25Z" fill="#fff" stroke="#fff" stroke-width=".5"/></g><defs><clipPath id="da"><path fill="#fff" transform="translate(9 9)" d="M0 0h22v22H0z"/></clipPath></defs></svg></svg>